<svg xmlns="http://www.w3.org/2000/svg" xmlns:svg="http://www.w3.org/2000/svg" id="svg354" width="19" height="19" x="0" y="0" enable-background="new 0 0 20 44" version="1.1" viewBox="0 0 19 19" xml:space="preserve"><metadata id="metadata360"/><g id="Global_Nav_Large_Icons" transform="translate(-0.6,-10.299681)"><path id="Apple" d="m 18.1,24.227 c -0.106,0.307 -0.217,0.6 -0.335,0.881 -0.288,0.664 -0.628,1.275 -1.022,1.836 -0.536,0.766 -0.976,1.296 -1.315,1.59 -0.525,0.483 -1.088,0.731 -1.691,0.744 -0.433,0 -0.954,-0.123 -1.562,-0.372 -0.609,-0.249 -1.169,-0.372 -1.681,-0.372 -0.537,0 -1.113,0.123 -1.729,0.372 -0.617,0.249 -1.114,0.38 -1.494,0.392 C 6.693,29.323 6.117,29.069 5.542,28.534 5.175,28.214 4.716,27.665 4.166,26.888 3.576,26.058 3.091,25.095 2.711,23.997 2.304,22.812 2.1,21.664 2.1,20.553 c 0,-1.273 0.275,-2.371 0.826,-3.291 0.433,-0.739 1.009,-1.322 1.73,-1.75 0.721,-0.428 1.5,-0.646 2.339,-0.66 0.459,0 1.061,0.142 1.809,0.421 0.746,0.28 1.225,0.422 1.435,0.422 0.157,0 0.689,-0.166 1.591,-0.497 0.853,-0.307 1.573,-0.434 2.163,-0.384 1.598,0.129 2.798,0.759 3.597,1.894 -1.429,0.866 -2.136,2.079 -2.122,3.635 0.013,1.212 0.452,2.221 1.316,3.022 0.392,0.371 0.83,0.658 1.316,0.862 z M 14.08,10.305 c 0.013,0.127 0.019,0.254 0.019,0.38 0,0.95 -0.347,1.837 -1.038,2.658 -0.835,0.976 -1.845,1.54 -2.94,1.451 -0.014,-0.114 -0.022,-0.234 -0.022,-0.36 0,-0.912 0.397,-1.888 1.102,-2.686 0.352,-0.404 0.8,-0.74 1.342,-1.008 0.542,-0.264 1.055,-0.41 1.537,-0.435 z" style="fill:#050505"/></g></svg>