<svg xmlns="http://www.w3.org/2000/svg" xmlns:svg="http://www.w3.org/2000/svg" xmlns:xlink="http://www.w3.org/1999/xlink" id="svg427" width="535.031" height="535.031" version="1.1" viewBox="0 0 501.592 501.592"><metadata id="metadata431"/><defs id="defs411"><linearGradient id="a"><stop id="stop395" offset="0" stop-color="#699ad7"/><stop id="stop397" offset=".243" stop-color="#7eb1dd"/><stop id="stop399" offset="1" stop-color="#7ebae4"/></linearGradient><linearGradient id="b"><stop id="stop402" offset="0" stop-color="#415e9a"/><stop id="stop404" offset=".232" stop-color="#4a6baf"/><stop id="stop406" offset="1" stop-color="#5277c3"/></linearGradient><linearGradient id="c" x1="200.597" x2="290.087" y1="351.411" y2="506.188" gradientTransform="translate(70.65,-1055.151)" gradientUnits="userSpaceOnUse" xlink:href="#a"/><linearGradient id="e" x1="-584.199" x2="-496.297" y1="782.336" y2="937.714" gradientTransform="translate(864.696,-1491.34)" gradientUnits="userSpaceOnUse" xlink:href="#b"/><linearGradient id="linearGradient485" x1="200.597" x2="290.087" y1="351.411" y2="506.188" gradientTransform="translate(70.65,-1055.151)" gradientUnits="userSpaceOnUse" xlink:href="#a"/><linearGradient id="linearGradient487" x1="-584.199" x2="-496.297" y1="782.336" y2="937.714" gradientTransform="translate(864.696,-1491.34)" gradientUnits="userSpaceOnUse" xlink:href="#b"/></defs><g id="g425" transform="translate(-156.4838,966.96572)"><path id="d" stroke-miterlimit="4" d="m 309.549,-710.388 122.197,211.675 -56.157,0.527 -32.624,-56.87 -32.856,56.566 -27.903,-0.011 -14.29,-24.69 46.81,-80.49 -33.23,-57.826 z" style="opacity:1;fill:url(#linearGradient485);fill-opacity:1;fill-rule:evenodd;stroke:none;stroke-width:3;stroke-linecap:butt;stroke-linejoin:round;stroke-miterlimit:4;stroke-dasharray:none;stroke-opacity:1"/><use id="use414" width="100%" height="100%" x="0" y="0" transform="rotate(60,407.112,-715.787)" xlink:href="#d"/><use id="use416" width="100%" height="100%" x="0" y="0" transform="rotate(-60,407.312,-715.7)" xlink:href="#d"/><use id="use418" width="100%" height="100%" x="0" y="0" transform="rotate(180,407.419,-715.756)" xlink:href="#d"/><path id="f" stroke-miterlimit="4" d="m 309.549,-710.388 122.197,211.675 -56.157,0.527 -32.624,-56.87 -32.856,56.566 -27.903,-0.011 -14.29,-24.69 46.81,-80.49 -33.23,-57.826 z" display="inline" overflow="visible" visibility="visible" style="color:#000;clip-rule:nonzero;display:inline;overflow:visible;visibility:visible;opacity:1;isolation:auto;mix-blend-mode:normal;color-interpolation:sRGB;color-interpolation-filters:linearRGB;solid-color:#000;solid-opacity:1;fill:url(#linearGradient487);fill-opacity:1;fill-rule:evenodd;stroke:none;stroke-width:3;stroke-linecap:butt;stroke-linejoin:round;stroke-miterlimit:4;stroke-dasharray:none;stroke-dashoffset:0;stroke-opacity:1;color-rendering:auto;image-rendering:auto;shape-rendering:auto;text-rendering:auto"/><use id="use421" width="100%" height="100%" x="0" y="0" transform="rotate(120,407.34,-716.084)" xlink:href="#f"/><use id="use423" width="100%" height="100%" x="0" y="0" transform="rotate(-120,407.288,-715.87)" xlink:href="#f"/></g></svg>