<svg xmlns="http://www.w3.org/2000/svg" xmlns:svg="http://www.w3.org/2000/svg" id="svg708" width="317.557" height="257.111" version="1.1" viewBox="0 0 84.02 68.027"><metadata id="metadata705"/><g id="layer1" transform="translate(-93.305382,-37.712535)"><g id="Layer_1" transform="matrix(0.26458333,0,0,0.26458333,82.313696,10.564181)"><g id="g613"><path id="path477" d="m 129.4,159.4 c 8.5,-8.4 20.7,-10.7 31.8,-14.2 12.7,-0.7 25.4,3.2 36.9,8.5 5,2 4.7,7.9 5.8,12.4 -3.6,0.8 -7.2,1.5 -10.8,2.4 1.6,-2.5 3.1,-4.9 4.6,-7.4 -0.1,-2.4 -2.9,-3.3 -4.3,-5 -1.9,1.3 -3.8,2.6 -5.7,3.9 -1.3,-1.1 -2.6,-2.2 -3.9,-3.3 -3.5,0.5 -7.3,1 -10.6,-0.9 -5.6,-2.5 -11.6,-4.4 -17.8,-3.8 -2.8,1.2 -5,3.4 -7.3,5.3 0,-1 0.1,-3 0.1,-4 -1.3,1.5 -2.6,3 -3.8,4.6 -8.6,0.9 -12.6,9.8 -10.7,17.5 -1.8,1.4 -3.7,2.9 -5.5,4.3 2,-3.9 3.7,-8.2 1.4,-12.4 -6.4,1.9 -6.9,8.9 -9.8,13.9 -3,5.5 -8.1,9.7 -10.5,15.5 -0.2,3.2 0.3,6.3 0.6,9.5 -2.4,-0.7 -4.8,-1.3 -7.1,-2 6,-16.3 13.3,-33.1 26.6,-44.8 z" class="st1" style="fill:#90e59a"/><path id="path479" d="m 148.1,157.4 c 2.4,-1.9 4.5,-4.2 7.3,-5.3 6.2,-0.6 12.2,1.3 17.8,3.8 -0.8,3.5 -2,6.9 -3.6,10.1 -4.8,-2.5 -9.6,-5.2 -14.1,-8.1 0.9,1.8 1.8,3.6 2.7,5.4 -1,1.4 -2.1,2.7 -3.1,4.1 -2,-2.6 -4,-5.2 -5.9,-7.9 -0.7,3.9 -3.6,6.8 -7.6,4.6 0.9,-2.1 1.8,-4.1 2.7,-6.1 1.2,-1.6 2.5,-3.1 3.8,-4.6 0.1,0.9 0,2.9 0,4 z" class="st2" style="fill:#5cce74"/><path id="path481" d="m 173.2,155.8 c 3.3,1.9 7,1.4 10.6,0.9 1.3,1.1 2.6,2.2 3.9,3.3 1.9,-1.3 3.8,-2.6 5.7,-3.9 1.3,1.7 4.2,2.6 4.3,5 -1.4,2.5 -3,5 -4.6,7.4 -0.9,0.2 -2.7,0.6 -3.5,0.9 1.8,2.2 3.6,4.4 5.4,6.5 -7.6,0.4 -13.1,-4.8 -18.9,-8.6 -5.3,0.8 -9.1,6.5 -14.6,7.1 -2.7,-1.2 -5.2,-2.8 -7.7,-4.4 -0.9,2.9 -1.5,5.9 -3.2,8.4 -2.5,1.7 -5.7,1.7 -8.6,2.5 0.1,1.3 0.3,2.7 0.4,4 -3.1,-3 -6.9,-5.8 -11.3,-3.8 3.2,3.3 -1.6,4.6 -3.8,6.1 -4.3,2.4 -9.1,5.5 -9.6,10.9 -1.2,3.1 0.1,7.9 -3.4,9.6 -4.1,1.1 -8.3,0.4 -12.4,0.3 0.3,-1 0.8,-2.9 1.1,-3.9 2.4,0.7 4.8,1.3 7.1,2 -0.4,-3.2 -0.9,-6.3 -0.6,-9.5 2.4,-5.8 7.5,-10 10.5,-15.5 2.9,-5 3.4,-12 9.8,-13.9 2.3,4.2 0.6,8.5 -1.4,12.4 1.8,-1.5 3.6,-2.9 5.5,-4.3 -1.9,-7.7 2.1,-16.6 10.7,-17.5 -0.9,2 -1.8,4.1 -2.7,6.1 3.9,2.2 6.9,-0.7 7.6,-4.6 1.9,2.7 3.9,5.3 5.9,7.9 1,-1.4 2,-2.7 3.1,-4.1 -0.9,-1.8 -1.8,-3.6 -2.7,-5.4 4.6,2.9 9.3,5.5 14.1,8.1 1.3,-3 2.5,-6.4 3.3,-10 m -39.9,63.6 c 2.2,0.4 4.3,0.8 6.5,1.3 -2.5,6.7 -6,13.5 -5.6,20.9 1.3,4.8 5.3,8.4 8.3,12.3 -4.4,1.3 -10.5,0.3 -13.5,4.4 -1.8,8 5.5,12.6 10.2,17.5 -6.8,-2.5 -14.4,-6.1 -16.8,-13.6 3.3,-4.1 7.4,-7.4 11.7,-10.6 -6.2,-9.4 -8.9,-23.2 -0.8,-32.2 m 69.3,16.9 c 1.6,1.4 3.3,2.8 4.9,4.1 0.2,2.7 0.4,5.5 0.5,8.2 -2.8,-3.6 -5.3,-7.5 -5.4,-12.3 m 42.6,2.1 c 1.7,-2.4 4.6,-2.2 6.4,-0.1 3.4,4.4 5.3,9.6 7.6,14.6 2.9,0.2 5.8,0.4 8.6,0.6 -5.7,2.1 -11.1,5.3 -11.9,11.9 -2.4,-3.4 1.1,-6.5 2.5,-9.6 -3.2,-6.7 -11,-10.1 -13.2,-17.4 m -81.6,4.3 1.7,-0.9 c 0.3,4.5 2.4,9.7 -0.9,13.5 -3.3,-0.3 -6.5,-0.5 -9.7,-1.1 4.3,-2.8 7.5,-6.3 8.9,-11.5 m 44.4,6 c 2.4,3.2 5.1,6 8.1,8.6 3.2,-3.7 10.3,-9.6 13.2,-2.6 -4.8,2.3 -10.8,4 -12.4,9.8 0,0.2 -0.1,0.5 -0.1,0.7 0.7,5.1 2.6,10 4.1,14.9 -11,-7.1 -4.4,-22.4 -12.9,-31.4 m 59.8,1.4 c 4.7,0.5 9.7,1.6 13.3,5.1 -4.5,-0.3 -9.1,-0.1 -13.3,-1.7 0,-0.8 0,-2.5 0,-3.4 M 256,275.9 c 5.7,2.5 11.3,5.2 17.3,7.2 3.4,-1.4 8.2,-8.9 11,-3.4 -4.4,4 -10.5,8.1 -16.7,6.7 -4.8,-2.3 -7.9,-6.9 -11.6,-10.5 m -158.7,0.9 c 1.1,0.2 3.2,0.5 4.4,0.6 4.8,11.1 5,24 11.6,34.4 3.8,6.2 6.9,12.7 10.5,19 3.8,6.5 10.1,10.9 16,15.4 12.6,9.3 33.4,7.9 42.3,-5.8 5.7,-12.2 -1.4,-25.1 -6.3,-36.3 -8.4,-13.2 -30.3,-3.2 -29.7,11.2 -2.5,-14.3 15.8,-26.4 28,-19.1 8.7,5.6 11.1,16.2 14.5,25.3 4,10.9 -1.9,23.8 -12.2,28.6 -8,5.1 -17.8,3.1 -26.7,3.1 -12.2,-0.6 -20.1,-10.5 -28,-18.4 C 114,325.4 109,314.2 103,303.6 99.8,295.1 98,286 97.3,276.8 m 64.8,36.6 c 1.4,1.6 2.5,3.4 3.9,5.1 -3.4,4.4 -8.9,4.2 -13.8,3.5 -2,-2.2 -4.1,-4.4 -6.1,-6.6 4.8,2.9 10.2,8.8 16.2,5.1 -0.2,-2.4 -0.2,-4.7 -0.2,-7.1 z" class="st3" style="fill:#75d66f"/><path id="path483" d="m 161.3,174.4 c 5.5,-0.6 9.3,-6.3 14.6,-7.1 5.9,3.9 11.4,9 18.9,8.6 -1.8,-2.2 -3.6,-4.4 -5.4,-6.5 0.9,-0.2 2.7,-0.7 3.5,-0.9 3.6,-0.9 7.2,-1.6 10.8,-2.4 0.9,3.4 1.8,6.9 2.9,10.3 -1.7,1.7 -3.4,3.5 -5.2,5.2 3.7,5.1 7.1,10.5 10.8,15.6 7.7,-2.1 12.6,5.3 16,11.1 -6.9,-0.4 -14.7,-0.5 -20.1,-5.5 -3.3,-3 -6.5,-6.1 -10,-9 -2.1,0.6 -4.2,1.2 -6.3,1.8 -1.7,-4.1 -2.7,-9.5 -7.9,-10.5 0.4,2.1 0.9,4.1 1.3,6.2 -3.1,1.8 -6.5,2.6 -10,1.6 1.4,-2.9 2.9,-5.7 4.4,-8.6 -4.3,-0.4 -6.8,3.3 -9.2,6.2 -0.5,-1.5 -1,-3 -1.4,-4.5 -1.6,-0.2 -3.1,-0.6 -4.7,-0.7 -2.3,0.5 -3.2,3.8 -5.7,3.9 -4.1,-0.4 -8,-2.1 -12.2,-2.3 -5,0.7 -9.7,2.9 -14.6,4.3 -1.6,-1.3 -3.3,-2.6 -4.9,-3.9 2.2,-1.6 7.1,-2.8 3.8,-6.1 4.5,-2 8.2,0.8 11.3,3.8 -0.1,-1.3 -0.3,-2.7 -0.4,-4 2.9,-0.7 6,-0.8 8.6,-2.5 1.7,-2.5 2.3,-5.6 3.2,-8.4 2.7,1.5 5.2,3.1 7.9,4.3 z" class="st4" style="fill:#8fe772"/><path id="path485" d="m 201.5,181.6 c 1.7,-1.7 3.4,-3.5 5.2,-5.2 1.7,5.1 3.9,10.3 8.2,13.7 7.2,5.5 14.7,11.5 23.7,13.6 8,1.5 16.8,0.6 23.7,-4 6,-5.4 8.8,-13.3 15,-18.5 5.8,2.9 12.3,4.2 17.9,7.5 5.8,3.7 8.6,10.3 12.1,16 -3.8,0.7 -7.5,1.5 -11.3,2.3 1.4,2.4 2.9,4.9 4.4,7.3 -1,1.5 -2,3 -2.9,4.6 -1.9,-3 -3.7,-6 -5.5,-9 -4.1,1 -8,2.6 -11.5,4.8 0.4,1.9 0.8,3.8 1.2,5.7 -8.8,-4.5 -18.2,0 -26.1,4.4 -2.4,1.3 -4.9,2.8 -7.3,4.1 -5,-2.7 -9.9,-5.5 -15.2,-7.6 -2.1,3.4 -4.6,6.7 -7.1,9.9 -0.9,-2.6 -1.9,-5.2 -2.7,-7.9 -0.9,0.1 -2.7,0.4 -3.6,0.5 -0.4,3.7 -0.3,7.4 0.2,11.1 -2.4,-0.3 -4.9,-0.6 -7.3,-0.9 1.1,-5 2.4,-9.9 3.4,-15 -1.2,0.1 -3.7,0.3 -4.9,0.4 -4.1,6.3 -4.3,13.9 -3.5,21.2 -1.7,-1.4 -3.3,-2.8 -4.9,-4.1 0.2,-5.2 0.9,-10.3 1.3,-15.5 -5.4,-2.3 -7.6,3.9 -8.6,7.9 -3,-1 -6,-1.9 -8.9,-3 -6.7,-2.1 -11.1,-8 -17.6,-10.6 -3.4,-1.4 -5.9,-4.2 -8.5,-6.7 -0.3,1 -0.9,3 -1.1,4 2.6,4.4 2.6,10.1 -2.5,12.8 -1.6,-0.2 -4.8,-0.6 -6.5,-0.9 5.4,5.5 13.3,6.5 20.4,8.4 -1,0.7 -3,2.1 -4,2.8 -6.8,-2.2 -14.2,-2.4 -20.6,-5.9 -0.2,-2.6 -0.5,-5.3 -0.7,-7.9 -1.9,-0.4 -3.7,-0.7 -5.6,-1.1 -2.2,-0.4 -4.3,-0.8 -6.5,-1.3 -1.6,-1.9 -3.4,-5.2 -6.3,-3.5 -2.3,2.1 -4.2,4.6 -6.4,6.9 -1.3,-1.8 -2.7,-3.6 -4,-5.4 -9.8,1.2 -9,13 -15.3,18.3 -4,2.9 -3.8,8.4 -7.5,11.6 -0.5,-4.5 -0.8,-8.9 -0.3,-13.4 2,-7.9 5.5,-15.3 7.5,-23.3 0.2,-0.6 0.5,-1.9 0.7,-2.6 4.1,0.2 8.4,0.8 12.4,-0.3 3.5,-1.7 2.1,-6.5 3.4,-9.6 0.6,-5.4 5.3,-8.5 9.6,-10.9 1.6,1.3 3.3,2.6 4.9,3.9 4.9,-1.5 9.6,-3.6 14.6,-4.3 4.2,0.2 8.1,1.9 12.2,2.3 2.5,-0.1 3.3,-3.4 5.7,-3.9 1.6,0.1 3.1,0.5 4.7,0.7 0.5,1.5 1,3 1.4,4.5 2.5,-2.9 4.9,-6.6 9.2,-6.2 -1.5,2.9 -2.9,5.7 -4.4,8.6 3.5,1 6.9,0.1 10,-1.6 -0.5,-2.1 -0.9,-4.1 -1.3,-6.2 5.2,0.9 6.2,6.3 7.9,10.5 2.1,-0.6 4.2,-1.2 6.3,-1.8 3.4,2.9 6.7,6 10,9 5.4,5 13.2,5.1 20.1,5.5 -3.3,-5.7 -8.3,-13.2 -16,-11.1 -3.7,-5.1 -7.2,-10.5 -10.9,-15.6 z" class="st5" style="fill:#a9f37e"/><path id="path487" d="m 296.1,207 c 3.8,-0.8 7.5,-1.5 11.3,-2.3 1.2,2.6 2.2,5.2 3.2,7.8 -10.4,10.4 -25.7,13.1 -39.4,16.3 -5.7,1.7 -11,-1.3 -15.7,-4 7.9,-4.3 17.3,-8.9 26.1,-4.4 -0.4,-1.9 -0.8,-3.8 -1.2,-5.7 3.6,-2.2 7.5,-3.8 11.5,-4.8 1.8,3 3.7,6 5.5,9 0.9,-1.5 1.9,-3.1 2.9,-4.6 -1.3,-2.4 -2.8,-4.9 -4.2,-7.3 z" class="st6" style="fill:#87de71"/><path id="path489" d="m 166,318.5 c -1.4,-1.6 -2.5,-3.5 -3.9,-5.1 0,2.4 0.1,4.7 0.2,7.1 -6,3.7 -11.4,-2.2 -16.2,-5.1 2,2.2 4.1,4.3 6.1,6.6 4.9,0.7 10.4,0.9 13.8,-3.5 z" class="st7" style="fill:none"/><path id="path491" d="m 116.9,261.7 c -3.7,-4.3 -10,-2.3 -15,-3 -5.4,0.3 -14,-0.9 -16.1,5.7 9.8,0.3 19.6,0.4 29.4,0.9 0.5,-0.9 1.3,-2.7 1.7,-3.6 z" class="st7" style="fill:none"/><path id="path493" d="m 227.3,248.1 c 5.4,8.8 16,7.7 24.9,7.5 -3.7,-3.5 -8.2,-6.2 -11.3,-10.3 -1.8,-1.7 -2.5,-5.1 -5.3,-5.4 -5.4,0.7 -10.8,1.5 -16.3,1.3 H 219 c -1.4,0 -4.3,0 -5.7,0 -0.3,3.3 -0.3,6.6 -0.3,9.9 1.3,0.7 4,2.1 5.3,2.9 1.8,-3.5 5.4,-4.9 9,-5.9 z" class="st7" style="fill:none"/><path id="path495" d="m 82.3,258.6 -0.4,-1.1 c -0.2,0.4 -0.5,1.2 -0.6,1.6 l -1.1,1.3 c -0.2,0.2 -0.6,0.7 -0.7,0.9 -2.6,2.2 -2.1,5.6 -2.4,8.6 0.4,0.7 1.3,2.2 1.7,3 4.5,2.7 3.6,-7.2 0.5,-7.4 1.9,-2.3 4,-4.5 4.6,-7.5 z" class="st7" style="fill:none"/><path id="path497" d="m 97.3,276.8 c 0.7,9.1 2.5,18.3 5.6,26.9 6,10.5 11,21.7 18.7,31.2 8,7.9 15.9,17.8 28,18.4 8.9,0 18.8,2 26.7,-3.1 10.3,-4.8 16.2,-17.7 12.2,-28.6 -3.4,-9 -5.9,-19.7 -14.5,-25.3 -12.2,-7.3 -30.5,4.8 -28,19.1 -0.6,-14.4 21.3,-24.4 29.7,-11.2 4.9,11.1 11.9,24.1 6.3,36.3 -9,13.7 -29.7,15.1 -42.3,5.8 -5.9,-4.5 -12.2,-8.9 -16,-15.4 -3.6,-6.2 -6.8,-12.8 -10.5,-19 -6.5,-10.5 -6.8,-23.3 -11.6,-34.4 -1.1,-0.2 -3.2,-0.5 -4.3,-0.7 z" class="st7" style="fill:none"/><path id="path499" d="m 88.2,269.7 c 0.3,0.7 1,2.1 1.4,2.8 10.7,1.1 21.4,0.3 32.1,0.3 -0.4,-0.5 -1.2,-1.4 -1.7,-1.9 -10.6,-0.4 -21.2,-2.9 -31.8,-1.2 z" class="st7" style="fill:none"/><path id="path501" d="m 251.6,238.3 c -1.8,-2.1 -4.7,-2.3 -6.4,0.1 2.2,7.2 10,10.7 13.2,17.4 -1.4,3 -4.9,6.2 -2.5,9.6 0.9,-6.5 6.3,-9.8 11.9,-11.9 -2.9,-0.2 -5.8,-0.4 -8.6,-0.6 -2.3,-5 -4.3,-10.2 -7.6,-14.6 z" class="st7" style="fill:none"/><path id="path503" d="m 69.8,256.7 c -1.1,2.5 -2.4,5.1 -3.7,7.5 1.1,3.2 2.8,6.2 4.8,8.9 0.6,-0.3 1.8,-0.8 2.3,-1 -4.3,-5 -0.9,-11 1.9,-15.8 -1.8,0.3 -3.6,0.4 -5.3,0.4 z" class="st7" style="fill:none"/><path id="path505" d="m 281.1,255.2 c -3.5,-3.4 -8.4,-4.5 -13.2,-5 0,0 -0.1,0 -0.1,0 0,0.9 0,2.5 0,3.3 4.2,1.6 8.8,1.4 13.3,1.7 z" class="st7" style="fill:none"/><path id="path507" d="m 127.6,249.9 c -4.1,-6.5 -5.5,-14.1 -3,-21.5 -1.8,0.5 -3.6,0.9 -5.4,1.3 -4,7.1 -9.4,14.4 -8.2,23 5.6,0 11.4,-0.1 16.6,-2.8 z" class="st7" style="fill:none"/><path id="path509" d="m 66.2,254.4 c -3.4,0.6 -6.8,0.7 -10.2,0.2 -2,3.5 -4.6,6.7 -8.2,8.7 -3.6,2.2 -2,7.3 -1.4,10.7 6.4,1.2 13,0.8 19.5,1.1 -1.6,-3.7 -3.8,-7.2 -4.7,-11.1 -0.5,-4.1 4.8,-5.7 5,-9.6 z" class="st7" style="fill:none"/><path id="path511" d="m 153.1,247.3 c 0.4,-2.3 1,-4.7 1.5,-7 -3.7,-3.5 -9.3,-3.4 -13.9,-4.7 -1.3,6.3 0.1,12.6 3.8,17.8 2.7,-2.1 5.5,-4.4 8.6,-6.1 z" class="st7" style="fill:none"/><path id="path513" d="m 285.2,269.2 c -9.8,1.7 -19.8,0.5 -29.6,1.8 -10.5,-2.1 -21.2,-2.4 -31.9,-1.6 0.1,1 0.2,3 0.3,4 10.5,-0.7 21.2,0.4 31.6,-1.8 9.1,2 18.4,1.2 27.6,0.6 4.7,-0.5 9,2.4 13.6,1.9 0.9,-6.4 -7.6,-4.6 -11.6,-4.9 z" class="st7" style="fill:none"/><path id="path515" d="m 262.6,261.1 c -0.4,0.7 -1.2,2.2 -1.6,3 5.9,1.8 12.2,0.7 18.2,1.5 7.8,1.1 16.2,2 23.5,-1.7 -2.5,-1.6 -4.8,-4 -7.8,-4.6 -10.8,-0.6 -21.6,0.8 -32.3,1.8 z" class="st7" style="fill:none"/><path id="path517" d="m 273.3,283.1 c -5.9,-2 -11.6,-4.6 -17.3,-7.2 3.7,3.6 6.8,8.2 11.5,10.5 6.2,1.4 12.3,-2.7 16.7,-6.7 -2.7,-5.5 -7.5,2 -10.9,3.4 z" class="st7" style="fill:none"/><path id="path519" d="m 232.4,260.6 c -2.4,0.6 -7.6,-0.2 -7,3.9 6.8,0.4 13.7,0.4 20.5,0.2 2.8,0.1 4,-1.3 3.7,-4.2 -5.7,0 -11.5,-0.3 -17.2,0.1 z" class="st7" style="fill:none"/><path id="path521" d="m 312.1,259 c -0.3,2.4 -0.5,4.8 -0.7,7.2 -1,0.6 -2.9,1.8 -3.8,2.5 0,2.2 -0.2,4.5 -0.3,6.7 8.3,-0.2 15.9,-3.7 24,-5.3 1.3,-2.6 0.5,-5.5 0.5,-8.3 -6.7,-0.6 -13,-3.1 -19.7,-2.8 z" class="st7" style="fill:none"/><path id="path523" d="m 165.3,241.9 -1.7,0.9 c -1.4,5.2 -4.6,8.7 -8.9,11.5 3.2,0.6 6.4,0.8 9.7,1.1 3.3,-3.9 1.2,-9.1 0.9,-13.5 z" class="st7" style="fill:none"/><path id="path525" d="m 206.4,256.5 c -1.9,-4.7 -3.7,-9.9 -7.8,-13.1 -8.7,0.4 -17.4,0.1 -26.1,0.4 -1.1,4.1 -2.5,8 -3.3,12.2 12.3,1.1 24.8,0.6 37.2,0.5 z" class="st7" style="fill:none"/><path id="path527" d="m 216.9,264.5 c 1.6,-5.8 7.6,-7.5 12.4,-9.8 -3,-7.1 -10,-1.1 -13.2,2.6 -2.4,-2.1 -4.6,-4.4 -6.6,-6.8 6.2,9.1 1.2,23 11.4,29.7 -1.5,-4.9 -3.3,-9.8 -4.1,-14.9 z" class="st7" style="fill:none"/><path id="path529" d="m 155.1,264.6 c 6,-1.8 11.7,2.2 17.7,2.2 11.5,0.3 23,0.3 34.5,-0.2 -0.1,-1.3 -0.3,-4 -0.4,-5.3 -15.3,0 -31.1,-2.3 -46,2 -4.2,-0.1 -8.1,-2 -12.2,-2.7 -2.8,-3.8 -10.1,-1.1 -14.7,-2.2 0.7,2.1 1.3,4.3 1.9,6.4 3.7,0.1 7.5,0.2 11.2,0.2 2.4,2.6 5.4,-0.2 8,-0.4 z" class="st7" style="fill:none"/><path id="path531" d="m 141.5,270.7 c 0.9,1.2 1.8,2.5 2.7,3.7 3.6,0.1 7.3,0.2 10.9,0.4 17.3,0.1 34.5,0.4 51.8,-0.2 0.3,-0.6 0.9,-1.7 1.3,-2.2 -17.7,-1.2 -35.4,-1.4 -53.1,-1.7 -4.5,0.1 -9,0.1 -13.6,0 z" class="st7" style="fill:none"/><path id="path533" d="m 220.5,183.6 -0.2,1.2 c 8.6,8.6 21.4,13.9 33.4,10.4 4.6,-2.5 9.2,-5.6 11.4,-10.5 7.5,-15.5 8.8,-33.8 3.7,-50.2 -4.6,-3.3 -9,-7.1 -11.7,-12.1 -5.5,-7.6 -14.6,-15.6 -24.6,-12 -10.2,1.4 -17.4,10.4 -20.2,19.8 -3.8,12 -5.1,25.6 0.1,37.4 1,5.9 2.1,13.2 8.1,16 z m 19.2,-29.5 c 2.2,6.5 -1.4,15.5 -9.4,15.6 -3.6,-2.5 -8.6,-4.8 -7.8,-10 -1.4,-9.6 11.6,-9.3 17.2,-5.6 z" class="st8" style="fill:#fbfdfc"/><path id="path535" d="m 307,191.9 c 4.6,-4.9 10.2,-8.7 15.1,-13.2 8.4,-12.3 15.5,-28.6 9.1,-43.4 -2.2,-9.8 -13.6,-13.2 -22.5,-12.1 -11.7,2 -24.6,6.2 -30.8,17.3 0.2,10.8 1.9,21.6 -0.3,32.3 11.4,3 23.8,8 29.4,19.1 z m 8.4,-45.5 c 2.3,-0.5 4.7,-1.1 7,-1.8 2.6,4 2.5,9.7 1.1,14.1 -4.6,4.5 -11.2,-0.1 -13.1,-5 1.7,-2.5 3.4,-4.9 5,-7.3 z" class="st8" style="fill:#fbfdfc"/><path id="path537" d="m 267.8,250.1 c 0,0.1 0,0.1 0,0 0.1,0.1 0.1,0.1 0,0 0.1,0.1 0.1,0.1 0,0 z" class="st0" style="fill:#231f20"/><path id="path539" d="m 307,191.9 c 4.6,-4.9 10.2,-8.7 15.1,-13.2 8.4,-12.3 15.5,-28.6 9.1,-43.4 -2.2,-9.8 -13.6,-13.2 -22.5,-12.1 -11.7,2 -24.6,6.2 -30.8,17.3 0.2,10.8 1.9,21.6 -0.3,32.3 11.4,3 23.8,8 29.4,19.1 z m 8.4,-45.5 c 2.3,-0.5 4.7,-1.1 7,-1.8 2.6,4 2.5,9.7 1.1,14.1 -4.6,4.5 -11.2,-0.1 -13.1,-5 1.7,-2.5 3.4,-4.9 5,-7.3 z" class="st7" style="fill:none"/><path id="path541" d="m 115.3,265.3 c 0.4,-0.9 1.2,-2.7 1.6,-3.6 -3.7,-4.3 -10,-2.3 -15,-3 -4.2,0.3 -10.2,-0.4 -13.7,2.3 v 3.5 c 9,0.2 18.1,0.4 27.1,0.8 z" class="st7" style="fill:none"/><path id="path543" d="m 124.6,228.4 c -1.8,0.5 -3.6,0.9 -5.4,1.3 -4,7.1 -9.4,14.4 -8.2,23 5.7,0 11.5,-0.1 16.6,-2.8 -4.1,-6.5 -5.5,-14.1 -3,-21.5 z" class="st7" style="fill:none"/><path id="path545" d="m 129,258.2 c 3,-4.1 9,-3.1 13.5,-4.4 -3,-3.9 -7.1,-7.4 -8.3,-12.3 -0.4,-7.3 3.1,-14.1 5.6,-20.9 1.9,0.4 3.7,0.7 5.6,1.1 0.3,2.6 0.5,5.2 0.7,7.9 6.4,3.5 13.8,3.7 20.6,5.9 9.4,3.1 19.5,2 29,-0.2 -0.2,-2.2 -0.3,-4.4 -0.3,-6.6 1,-4 3.2,-10.2 8.6,-7.9 -0.5,5.2 -1.1,10.3 -1.3,15.5 0.1,4.7 2.5,8.7 5.4,12.3 -0.1,-2.7 -0.3,-5.5 -0.5,-8.2 -0.8,-7.2 -0.6,-14.9 3.5,-21.2 1.2,-0.1 3.7,-0.3 4.9,-0.4 -1,5 -2.3,10 -3.4,15 2.4,0.3 4.9,0.6 7.3,0.9 9.8,1.1 19.7,-1.4 28.4,-6 2.5,-1.3 4.9,-2.7 7.3,-4.1 4.7,2.8 10,5.7 15.7,4 13.7,-3.2 29,-5.9 39.4,-16.3 -0.8,-2.1 -1.7,-4.2 -2.6,-6.3 -0.2,-0.5 -0.4,-1 -0.6,-1.5 -3.4,-5.7 -6.2,-12.3 -12.1,-16 -5.6,-3.3 -12.1,-4.7 -17.9,-7.5 -6.2,5.2 -9.1,13.1 -15,18.5 -6.9,4.6 -15.7,5.5 -23.7,4 -9.1,-2.1 -16.5,-8.1 -23.7,-13.6 -4.4,-3.4 -6.6,-8.6 -8.2,-13.7 -1,-3.4 -2,-6.8 -2.9,-10.3 -1.1,-4.4 -0.8,-10.3 -5.8,-12.4 -0.2,-0.1 -0.4,-0.2 -0.6,-0.3 -11.3,-5.2 -23.7,-9 -36.3,-8.3 -11,3.4 -23.2,5.8 -31.8,14.2 -13.3,11.7 -20.7,28.4 -26.6,44.8 -0.3,1 -0.8,2.9 -1.1,3.9 -0.2,0.7 -0.5,1.9 -0.7,2.6 -2,7.9 -5.5,15.4 -7.5,23.3 -0.5,4.5 -0.2,9 0.3,13.4 0,0.8 0.1,2.5 0.2,3.4 2.7,0 5.4,0.1 8.1,0.2 5.6,-9.7 9.2,-21 18.5,-28.1 2.2,-2.2 4.1,-4.7 6.4,-6.9 2.9,-1.6 4.8,1.7 6.3,3.5 -8.1,9 -5.4,22.8 0.9,32.1 -4.2,3.1 -8.4,6.4 -11.7,10.6 2.3,7.5 9.9,11.1 16.8,13.6 -4.9,-4.7 -12.2,-9.3 -10.4,-17.3 z" class="st7" style="fill:none"/><path id="path547" d="m 198.5,243.4 c -8.7,0.4 -17.4,0.1 -26.1,0.4 -1.1,4.1 -2.5,8 -3.3,12.2 12.4,1.1 24.9,0.7 37.3,0.5 -1.9,-4.7 -3.7,-9.9 -7.9,-13.1 z" class="st7" style="fill:none"/><path id="path549" d="m 166,318.5 c -1.4,-1.6 -2.5,-3.5 -3.9,-5.1 0,2.4 0.1,4.7 0.2,7.1 -6,3.7 -11.4,-2.2 -16.2,-5.1 2,2.2 4.1,4.3 6.1,6.6 4.9,0.7 10.4,0.9 13.8,-3.5 z" class="st7" style="fill:none"/><path id="path551" d="m 121.7,272.8 c -0.4,-0.5 -1.2,-1.4 -1.7,-1.9 -10.6,-0.4 -21.2,-2.9 -31.8,-1.2 0.3,0.7 1,2.1 1.4,2.8 10.6,1.1 21.4,0.3 32.1,0.3 z" class="st7" style="fill:none"/><path id="path553" d="m 97.3,276.8 c 0.7,9.1 2.5,18.3 5.6,26.9 6,10.5 11,21.7 18.7,31.2 8,7.9 15.9,17.8 28,18.4 8.9,0 18.8,2 26.7,-3.1 10.3,-4.8 16.2,-17.7 12.2,-28.6 -3.4,-9 -5.9,-19.7 -14.5,-25.3 -12.2,-7.3 -30.5,4.8 -28,19.1 -0.6,-14.4 21.3,-24.4 29.7,-11.2 4.9,11.1 11.9,24.1 6.3,36.3 -9,13.7 -29.7,15.1 -42.3,5.8 -5.9,-4.5 -12.2,-8.9 -16,-15.4 -3.6,-6.2 -6.8,-12.8 -10.5,-19 -6.5,-10.5 -6.8,-23.3 -11.6,-34.4 -1.1,-0.2 -3.2,-0.5 -4.3,-0.7 z" class="st7" style="fill:none"/><path id="path555" d="m 232.4,260.6 c -2.4,0.6 -7.6,-0.2 -7,3.9 6.8,0.4 13.7,0.4 20.5,0.2 2.8,0.1 4,-1.3 3.7,-4.2 -5.7,0 -11.5,-0.3 -17.2,0.1 z" class="st7" style="fill:none"/><path id="path557" d="m 240.9,245.3 c -1.8,-1.7 -2.5,-5.1 -5.3,-5.4 -5.4,0.7 -10.8,1.5 -16.3,1.3 H 219 c -1.4,0 -4.3,0 -5.7,0 -0.3,3.3 -0.3,6.6 -0.3,9.9 1.3,0.7 4,2.1 5.3,2.9 1.9,-3.5 5.5,-4.9 9.1,-5.9 5.4,8.8 16,7.7 24.9,7.5 -3.8,-3.5 -8.3,-6.3 -11.4,-10.3 z" class="st7" style="fill:none"/><path id="path559" d="m 220.5,183.6 -0.2,1.2 c 8.6,8.6 21.4,13.9 33.4,10.4 4.6,-2.5 9.2,-5.6 11.4,-10.5 7.5,-15.5 8.8,-33.8 3.7,-50.2 -4.6,-3.3 -9,-7.1 -11.7,-12.1 -5.5,-7.6 -14.6,-15.6 -24.6,-12 -10.2,1.4 -17.4,10.4 -20.2,19.8 -3.8,12 -5.1,25.6 0.1,37.4 1,5.9 2.1,13.2 8.1,16 z m 19.2,-29.5 c 2.2,6.5 -1.4,15.5 -9.4,15.6 -3.6,-2.5 -8.6,-4.8 -7.8,-10 -1.4,-9.6 11.6,-9.3 17.2,-5.6 z" class="st7" style="fill:none"/><path id="path561" d="m 262.6,261.1 c -0.4,0.7 -1.2,2.2 -1.6,3 5.9,1.8 12.2,0.7 18.2,1.5 7.8,1.1 16.2,2 23.5,-1.7 -2.5,-1.6 -4.8,-4 -7.8,-4.6 -10.8,-0.6 -21.6,0.8 -32.3,1.8 z" class="st7" style="fill:none"/><path id="path563" d="m 285.2,269.2 c -9.8,1.7 -19.8,0.5 -29.6,1.8 -10.5,-2.1 -21.2,-2.4 -31.9,-1.6 0.1,1 0.2,3 0.3,4 10.5,-0.7 21.2,0.4 31.6,-1.8 9.1,2 18.4,1.2 27.6,0.6 4.7,-0.5 9,2.4 13.6,1.9 0.9,-6.4 -7.6,-4.6 -11.6,-4.9 z" class="st7" style="fill:none"/><path id="path565" d="m 273.3,283.1 c -5.9,-2 -11.6,-4.6 -17.3,-7.2 3.7,3.6 6.8,8.2 11.5,10.5 6.2,1.4 12.3,-2.7 16.7,-6.7 -2.7,-5.5 -7.5,2 -10.9,3.4 z" class="st7" style="fill:none"/><path id="path567" d="m 312.1,259 c -0.3,2.4 -0.5,4.8 -0.7,7.2 -1,0.6 -2.9,1.8 -3.8,2.5 0,2.2 -0.2,4.5 -0.3,6.7 8.3,-0.2 15.9,-3.7 24,-5.3 1.3,-2.6 0.5,-5.5 0.5,-8.3 -6.7,-0.6 -13,-3.1 -19.7,-2.8 z" class="st7" style="fill:none"/><path id="path569" d="m 251.6,238.3 c -1.8,-2.1 -4.7,-2.3 -6.4,0.1 2.2,7.2 10,10.7 13.2,17.4 -1.4,3 -4.9,6.2 -2.5,9.6 0.9,-6.5 6.3,-9.8 11.9,-11.9 -2.9,-0.2 -5.8,-0.4 -8.6,-0.6 -2.3,-5 -4.3,-10.2 -7.6,-14.6 z" class="st7" style="fill:none"/><path id="path571" d="m 155.1,264.6 c 6,-1.8 11.7,2.2 17.7,2.2 11.5,0.3 23,0.3 34.5,-0.2 -0.1,-1.3 -0.3,-4 -0.4,-5.3 -15.3,0 -31.1,-2.3 -46,2 -4.2,-0.1 -8.1,-2 -12.2,-2.7 -2.8,-3.8 -10.1,-1.1 -14.7,-2.2 0.7,2.1 1.3,4.3 1.9,6.4 3.7,0.1 7.5,0.2 11.2,0.2 2.4,2.6 5.4,-0.2 8,-0.4 z" class="st7" style="fill:none"/><path id="path573" d="m 141.5,270.7 c 0.9,1.2 1.8,2.5 2.7,3.7 3.6,0.1 7.3,0.2 10.9,0.4 17.3,0.1 34.5,0.4 51.8,-0.2 0.3,-0.6 0.9,-1.7 1.3,-2.2 -17.7,-1.2 -35.4,-1.4 -53.1,-1.7 -4.5,0.1 -9,0.1 -13.6,0 z" class="st7" style="fill:none"/><path id="path575" d="m 144.4,253.5 c 2.8,-2.2 5.6,-4.4 8.6,-6.1 0.4,-2.3 1,-4.7 1.5,-7 -3.7,-3.5 -9.3,-3.4 -13.9,-4.7 -1.2,6.2 0.2,12.5 3.8,17.8 z" class="st7" style="fill:none"/><path id="path577" d="m 154.7,254.2 c 3.2,0.6 6.4,0.8 9.7,1.1 3.3,-3.8 1.2,-9 0.9,-13.5 l -1.7,0.9 c -1.4,5.2 -4.6,8.7 -8.9,11.5 z" class="st7" style="fill:none"/><path id="path579" d="m 216.9,264.5 c 1.6,-5.8 7.6,-7.5 12.4,-9.8 -3,-7.1 -10,-1.1 -13.2,2.6 -2.4,-2.1 -4.6,-4.4 -6.6,-6.8 6.2,9.1 1.2,23 11.4,29.7 -1.5,-4.9 -3.3,-9.8 -4.1,-14.9 z" class="st7" style="fill:none"/><path id="path581" d="m 69.8,256.7 c -1.1,2.5 -2.4,5.1 -3.7,7.5 1.1,3.2 2.8,6.2 4.8,8.9 0.6,-0.3 1.8,-0.8 2.3,-1 -4.3,-5 -0.9,-11 1.9,-15.8 -1.8,0.3 -3.6,0.4 -5.3,0.4 z" class="st9" style="fill:#fff"/><path id="path583" d="m 82.3,258.6 -0.4,-1.1 c -0.2,0.4 -0.5,1.2 -0.6,1.6 l -1.1,1.3 c -0.2,0.2 -0.6,0.7 -0.7,0.9 -2.6,2.2 -2.1,5.6 -2.4,8.6 0.4,0.7 1.3,2.2 1.7,3 4.5,2.7 3.6,-7.2 0.5,-7.4 1.9,-2.3 4,-4.5 4.6,-7.5 z" class="st9" style="fill:#fff"/><path id="path585" d="m 230.3,169.7 c 8,0 11.5,-9.1 9.4,-15.6 -5.6,-3.7 -18.5,-4 -17.2,5.5 -0.8,5.2 4.2,7.6 7.8,10.1 z" class="st0" style="fill:#231f20"/><path id="path587" d="m 323.5,158.6 c 1.4,-4.4 1.5,-10.1 -1.1,-14.1 -2.3,0.7 -4.6,1.3 -7,1.8 -1.7,2.4 -3.3,4.8 -5,7.2 1.9,5 8.4,9.6 13.1,5.1 z" class="st0" style="fill:#231f20"/><path id="path589" d="m 319.1,255.3 c -10.3,-1.8 -20.7,-0.1 -31,-0.3 -4.6,-3.1 -9.1,-6.7 -14.8,-7.1 -1.8,0.8 -3.6,1.5 -5.4,2.2 4.7,0.5 9.6,1.6 13.2,5 -4.5,-0.3 -9.1,-0.1 -13.3,-1.7 -5.7,2.1 -11.1,5.3 -11.9,11.9 -2.4,-3.4 1.1,-6.5 2.5,-9.6 -3.2,-6.7 -10.9,-10.2 -13.2,-17.4 1.7,-2.4 4.6,-2.2 6.4,-0.1 3.4,4.4 5.3,9.6 7.6,14.6 2.9,0.2 5.8,0.4 8.6,0.6 0,-0.8 0,-2.5 0,-3.3 -1.4,0.6 -2.9,1.2 -4.3,1.9 -2.5,-5.5 -4.6,-11.1 -6.4,-16.8 3.4,0.8 6.7,2 10.1,2.7 15.6,-2.4 32.3,-5.5 44.5,-16.3 2.6,-2.6 7.2,-4.9 6.4,-9.2 -0.3,-2.2 -1,-4.3 -2,-6.2 -1.7,-3.6 -4.1,-6.9 -5.6,-10.7 3.5,-1.3 7.1,-2.6 10.5,-4.2 12.2,-11.9 18.3,-28.9 19.6,-45.7 -1.2,-8.9 -3.7,-18.7 -10.6,-25 -12.6,-6.3 -27.4,-4.3 -40.2,0.3 -5.8,2.3 -10,7 -14.9,10.8 -3.9,-0.9 -6.3,-5.4 -8.9,-8.4 -5,-8.5 -11.8,-16.3 -21.1,-20 -7.8,-0.3 -16.7,-2.4 -23.4,2.6 -3.4,2.2 -7.2,4.2 -9.6,7.7 -5.4,10.1 -8.5,21.3 -9.4,32.6 -1.7,-0.7 -3.4,-1.3 -5.1,-2 -11.9,-4.4 -24.3,-7.4 -37,-7 -8.8,1.7 -17.4,4.3 -25.6,8 -16.7,8.7 -27.3,25.7 -33.5,43 -3.8,7.6 -6.5,15.6 -8,23.9 -1.4,7.5 -4.3,14.8 -4.7,22.5 0,5.2 0.4,10.4 0.3,15.6 -0.2,0.1 -0.5,0.3 -0.7,0.4 -5.4,3 -11.8,2.9 -17.8,3.9 -4.5,-0.1 -8.8,-2.3 -13.3,-1 0,0 -0.1,0 -0.1,0 -4.8,2.3 -9.9,3.6 -14.7,5.8 -1.1,6.8 -2.2,16.2 6,18.8 2.9,0 5.9,0 8.8,0 10.4,0 20.7,0.1 31.1,0.2 0.8,0 1.6,0 2.4,0 2.5,13 5,26.4 11.9,37.9 8.1,13.1 16.1,26.8 28.4,36.4 11.8,7.9 26.7,8.2 40.2,5.8 5.1,-0.6 8.7,-4.6 13.3,-6.5 2.8,-1.7 7,-2.1 8,-5.7 9.2,-15 2.2,-33.5 -6.2,-47.2 -5.3,-9.4 -16.9,-11.3 -26.7,-10.9 -5.8,0.9 -9.4,5.8 -14.1,8.8 -5.1,3.1 -10.1,9.7 -6.2,15.7 3.3,6.3 7.4,14.7 15.8,14.2 5.3,-0.6 12.3,-1.8 14.6,-7.3 1,-6.7 -6.9,-9.9 -12.2,-11.1 0.3,3.3 0.6,6.5 0.9,9.8 -2.7,-1.9 -5.5,-3.7 -8.3,-5.6 1.7,-8.8 11.5,-8.6 18.3,-11.3 6.9,10.7 14.1,24.5 8.5,37.3 -6.5,8.1 -18.2,7.1 -27.2,5 -11.8,-1.8 -19.7,-12.4 -24.9,-22.3 -7.9,-13.7 -17.5,-28.4 -15.8,-44.9 5.5,-0.1 11.1,-0.5 16.5,0.1 5.3,1.2 10,5.8 15.7,3.6 12.2,-3.3 24.9,-1.3 37.4,-1.5 9.8,-0.5 19.7,-1 29.5,-0.4 3.5,1 5.5,5.3 9.6,5 4.7,1.6 7.4,-3.3 10.9,-5.3 7.9,-0.3 15.9,-0.5 23.7,0 3.7,6.5 9.3,13.5 17.3,14.5 9.7,0.4 18,-6.5 23.2,-14.1 6.9,1.6 14.3,3.7 21,0.3 14.5,-6.1 30.5,-6.1 45.4,-10.4 0,-1.1 0,-3.2 0,-4.3 -11.7,-7.4 -26.5,-5.2 -40,-8.6 z m -66.9,0.3 c -8.9,0.2 -19.5,1.3 -24.9,-7.5 -3.6,1 -7.2,2.4 -9.1,5.9 -1.3,-0.7 -4,-2.2 -5.3,-2.9 0,-3.3 0,-6.6 0.3,-9.9 1.4,0 4.3,0 5.7,0 h 0.3 c 5.5,0.3 10.9,-0.6 16.3,-1.3 2.8,0.3 3.5,3.7 5.3,5.4 3.2,4 7.7,6.8 11.4,10.3 z m -6.3,9.1 c -6.9,0.2 -13.7,0.2 -20.5,-0.2 -0.7,-4.1 4.5,-3.3 7,-3.9 5.8,-0.4 11.5,-0.1 17.3,-0.1 0.2,2.9 -1,4.3 -3.8,4.2 z m 32,-124.1 c 6.2,-11.1 19.1,-15.3 30.8,-17.3 8.9,-1.1 20.2,2.3 22.5,12.1 6.4,14.7 -0.7,31 -9.1,43.4 -4.9,4.6 -10.5,8.3 -15.1,13.2 -5.6,-11.2 -18,-16.2 -29.4,-19 2.1,-10.8 0.5,-21.7 0.3,-32.4 z m -65.6,-10.4 c 2.8,-9.4 10,-18.4 20.2,-19.8 10,-3.6 19.2,4.4 24.6,12 2.8,5.1 7.1,8.8 11.7,12.1 5.1,16.4 3.8,34.7 -3.7,50.2 -2.2,5 -6.9,8 -11.4,10.5 -12.1,3.5 -24.8,-1.8 -33.4,-10.4 l 0.2,-1.2 c -6.1,-2.8 -7.1,-10.2 -8.2,-16 -5.1,-11.8 -3.8,-25.4 0,-37.4 z M 57.1,274.9 c -3.6,-0.1 -7.1,-0.3 -10.7,-0.9 -0.6,-3.4 -2.1,-8.4 1.4,-10.7 3.6,-2 6.1,-5.2 8.2,-8.7 0.4,0.1 0.7,0.1 1.1,0.1 3,0.4 6.1,0.3 9.1,-0.3 -0.3,3.9 -5.6,5.6 -4.9,9.6 0.9,3.9 3.1,7.4 4.7,11.1 -3,-0.1 -5.9,-0.2 -8.9,-0.2 z m 16.1,-2.7 c -0.6,0.3 -1.8,0.8 -2.3,1 -2,-2.8 -3.6,-5.7 -4.8,-8.9 1.4,-2.4 2.6,-5 3.7,-7.5 1.7,-0.1 3.5,-0.2 5.2,-0.4 -2.7,4.8 -6.1,10.7 -1.8,15.8 z m 5.4,0.6 c -0.4,-0.7 -1.3,-2.2 -1.7,-3 0.3,-3 -0.2,-6.4 2.4,-8.6 0.2,-0.2 0.5,-0.6 0.7,-0.9 l 1.1,-1.3 c 0.2,-0.4 0.5,-1.2 0.6,-1.6 l 0.4,1.1 1.4,-0.6 c -0.5,3 -2.7,5.2 -4.6,7.5 3.4,0.2 4.2,10.1 -0.3,7.4 z m 7.3,-8.4 c 0.5,-1.5 1.3,-2.6 2.3,-3.4 3.5,-2.7 9.5,-2 13.7,-2.3 5,0.7 11.2,-1.3 15,3 -0.4,0.9 -1.2,2.7 -1.6,3.6 -9,-0.4 -18.1,-0.6 -27.1,-0.8 -0.8,0 -1.5,0 -2.3,-0.1 z m 41.7,-14.5 c -5.2,2.7 -11,2.8 -16.6,2.8 -1.2,-8.6 4.2,-15.9 8.2,-23 1.8,-0.4 3.6,-0.8 5.4,-1.3 -2.5,7.4 -1.1,15 3,21.5 z m -14.4,62 c 3.8,6.2 6.9,12.7 10.5,19 3.8,6.5 10.1,10.9 16,15.4 12.6,9.3 33.4,7.9 42.3,-5.8 5.7,-12.2 -1.4,-25.1 -6.3,-36.3 -8.4,-13.2 -30.3,-3.2 -29.7,11.2 4.8,2.9 10.2,8.8 16.2,5.1 -0.1,-2.3 -0.2,-4.7 -0.2,-7.1 1.4,1.6 2.5,3.4 3.9,5.1 -3.4,4.4 -8.9,4.2 -13.8,3.5 -2,-2.2 -4.1,-4.4 -6.1,-6.6 -2.5,-14.3 15.8,-26.4 28,-19.1 8.7,5.6 11.1,16.2 14.5,25.3 4,10.9 -1.9,23.8 -12.2,28.6 -8,5.1 -17.8,3.1 -26.7,3.1 -12.2,-0.6 -20.1,-10.5 -28,-18.4 -7.7,-9.4 -12.7,-20.6 -18.7,-31.2 -3.1,-8.6 -4.9,-17.8 -5.6,-26.9 1.1,0.2 3.2,0.5 4.4,0.6 4.7,11.2 5,24 11.5,34.5 z M 89.6,272.5 c -0.4,-0.7 -1,-2.1 -1.4,-2.8 10.6,-1.7 21.2,0.8 31.8,1.2 0.4,0.5 1.2,1.4 1.7,1.9 -10.7,0 -21.5,0.8 -32.1,-0.3 z m 32.9,-10.4 c 3.3,-4.1 7.4,-7.4 11.7,-10.6 -6.2,-9.3 -9,-23.1 -0.9,-32.1 -1.6,-1.9 -3.4,-5.2 -6.3,-3.5 -2.3,2.1 -4.2,4.6 -6.4,6.9 -9.3,7.1 -12.9,18.4 -18.5,28.1 -2.7,-0.1 -5.4,-0.2 -8.1,-0.2 0,-0.8 -0.1,-2.5 -0.2,-3.4 -0.5,-4.5 -0.8,-8.9 -0.3,-13.4 2,-7.9 5.5,-15.3 7.5,-23.3 0.2,-0.6 0.5,-1.9 0.7,-2.6 0.3,-1 0.8,-2.9 1.1,-3.9 6,-16.3 13.4,-33 26.6,-44.8 8.5,-8.4 20.7,-10.7 31.8,-14.2 12.5,-0.7 25,3.1 36.3,8.3 0.2,0.1 0.4,0.2 0.6,0.3 5,2 4.7,7.9 5.8,12.4 0.9,3.4 1.8,6.9 2.9,10.3 1.7,5.1 3.9,10.3 8.2,13.7 7.2,5.5 14.7,11.5 23.7,13.6 8,1.5 16.8,0.6 23.7,-4 6,-5.4 8.8,-13.3 15,-18.5 5.8,2.9 12.3,4.2 17.9,7.5 5.8,3.7 8.6,10.3 12.1,16 0.2,0.5 0.4,1 0.6,1.5 0.9,2.1 1.7,4.2 2.6,6.3 -10.4,10.4 -25.7,13.1 -39.4,16.3 -5.7,1.7 -11,-1.3 -15.7,-4 -2.4,1.3 -4.9,2.8 -7.3,4.1 -8.6,4.6 -18.6,7.1 -28.4,6 -2.4,-0.3 -4.9,-0.6 -7.3,-0.9 1.1,-5 2.4,-9.9 3.4,-15 -1.2,0.1 -3.7,0.3 -4.9,0.4 -4.1,6.3 -4.3,13.9 -3.5,21.2 0.2,2.7 0.4,5.5 0.5,8.2 -2.9,-3.6 -5.3,-7.6 -5.4,-12.3 0.2,-5.2 0.9,-10.3 1.3,-15.5 -5.4,-2.3 -7.6,3.9 -8.6,7.9 0,2.2 0.2,4.4 0.3,6.6 -9.5,2.2 -19.6,3.3 -29,0.2 -6.8,-2.2 -14.2,-2.4 -20.6,-5.9 -0.2,-2.6 -0.5,-5.3 -0.7,-7.9 -1.9,-0.4 -3.7,-0.7 -5.6,-1.1 -2.5,6.7 -6,13.5 -5.6,20.9 1.3,4.8 5.3,8.4 8.3,12.3 -4.4,1.3 -10.5,0.3 -13.5,4.4 -1.8,8 5.5,12.6 10.2,17.5 -6.7,-2.7 -14.3,-6.3 -16.6,-13.8 z m 83.9,-5.6 c -12.4,0.2 -24.9,0.6 -37.3,-0.5 0.8,-4.1 2.2,-8.1 3.3,-12.2 8.7,-0.3 17.4,0 26.1,-0.4 4.2,3.2 6,8.4 7.9,13.1 z m -42,-1.2 c -3.3,-0.3 -6.5,-0.5 -9.7,-1.1 4.3,-2.9 7.5,-6.4 8.9,-11.5 l 1.7,-0.9 c 0.3,4.5 2.4,9.7 -0.9,13.5 z m -9.8,-15 c -0.6,2.3 -1.1,4.6 -1.5,7 -3.1,1.7 -5.9,4 -8.6,6.1 -3.6,-5.3 -5,-11.5 -3.8,-17.8 4.6,1.4 10.2,1.2 13.9,4.7 z M 136,264.9 c -0.6,-2.1 -1.2,-4.3 -1.9,-6.4 4.6,1.1 11.9,-1.6 14.7,2.2 4.1,0.7 8,2.6 12.2,2.7 14.9,-4.4 30.7,-2 46,-2 0.1,1.3 0.3,4 0.4,5.3 -11.5,0.4 -23,0.5 -34.5,0.2 -6,0 -11.7,-4 -17.7,-2.2 -2.6,0.2 -5.6,3 -7.9,0.6 -3.9,-0.2 -7.6,-0.3 -11.3,-0.4 z m 70.9,9.7 c -17.3,0.6 -34.5,0.3 -51.8,0.2 -3.6,-0.1 -7.3,-0.3 -10.9,-0.4 -0.9,-1.2 -1.8,-2.5 -2.7,-3.7 4.5,0 9,0.1 13.6,0 17.7,0.2 35.4,0.5 53.1,1.7 -0.4,0.6 -1,1.7 -1.3,2.2 z m 2.6,-24.2 c 2,2.5 4.2,4.7 6.6,6.8 3.2,-3.7 10.3,-9.6 13.2,-2.6 -4.8,2.3 -10.8,4 -12.4,9.8 l -0.1,0.7 c 0.7,5.1 2.6,10 4.1,14.9 -10.3,-6.6 -5.2,-20.4 -11.4,-29.6 z m 58.1,36 c -4.8,-2.3 -7.8,-6.9 -11.5,-10.5 5.7,2.5 11.3,5.2 17.3,7.2 3.4,-1.4 8.2,-8.9 11,-3.4 -4.5,4 -10.6,8.1 -16.8,6.7 z m 29.2,-12.3 c -4.6,0.6 -8.9,-2.3 -13.6,-1.9 -9.2,0.6 -18.5,1.4 -27.6,-0.6 -10.4,2.2 -21.1,1.2 -31.6,1.8 -0.1,-1 -0.2,-3 -0.3,-4 10.7,-0.9 21.4,-0.5 31.9,1.6 9.8,-1.3 19.8,-0.1 29.6,-1.8 4,0.3 12.5,-1.5 11.6,4.9 z m -17.6,-8.5 c -6,-0.8 -12.3,0.3 -18.2,-1.5 0.4,-0.7 1.2,-2.2 1.6,-3 10.7,-0.9 21.4,-2.4 32.3,-1.8 3,0.6 5.3,3 7.8,4.6 -7.3,3.6 -15.7,2.7 -23.5,1.7 z m 52.1,4.5 c -8.1,1.5 -15.7,5.1 -24,5.3 0.2,-2.2 0.3,-4.5 0.3,-6.7 0.9,-0.6 2.8,-1.9 3.8,-2.5 0.2,-2.4 0.5,-4.8 0.7,-7.2 6.7,-0.3 13,2.2 19.6,2.9 0.1,2.6 0.9,5.6 -0.4,8.2 z" class="st0" style="fill:#231f20"/><path id="path591" d="m 160.4,208.5 c 2.6,2.5 5.1,5.3 8.5,6.7 6.4,2.5 10.9,8.5 17.6,10.6 -0.6,1 -1.2,2.1 -1.8,3.1 -9.1,-2.9 -18.8,-0.7 -27.9,-3.6 5.1,-2.7 5.1,-8.4 2.5,-12.8 0.2,-1 0.8,-3 1.1,-4 z" class="st10" style="fill:#97eb74"/><path id="path593" d="m 101.2,235.7 c 6.3,-5.3 5.5,-17.1 15.3,-18.3 1.4,1.8 2.7,3.6 4,5.4 -9.3,7.1 -12.9,18.4 -18.5,28.1 -2.7,-0.1 -5.4,-0.2 -8.1,-0.2 0,-0.8 -0.1,-2.5 -0.2,-3.4 3.7,-3.2 3.5,-8.7 7.5,-11.6 z" class="st11" style="fill:#84cb71"/><path id="path595" d="m 233,221.3 c 5.3,2.1 10.2,4.9 15.2,7.6 -8.6,4.6 -18.6,7.1 -28.4,6 -0.5,-3.7 -0.6,-7.4 -0.2,-11.1 0.9,-0.1 2.7,-0.3 3.6,-0.5 0.9,2.6 1.8,5.2 2.7,7.9 2.5,-3.2 4.9,-6.5 7.1,-9.9 z" class="st12" style="fill:#6cb960"/><path id="path597" d="m 150.3,224.4 c 1.6,0.2 4.8,0.6 6.5,0.9 9.1,2.9 18.8,0.7 27.9,3.6 0.6,-1 1.2,-2.1 1.8,-3.1 3,1.1 5.9,2 8.9,3 0,2.2 0.2,4.4 0.3,6.6 -9.5,2.2 -19.6,3.3 -29,0.2 1,-0.7 3,-2.1 4,-2.8 -7.1,-1.9 -15,-2.9 -20.4,-8.4 z" class="st13" style="fill:#77c66c"/><path id="path599" d="m 56.1,254.6 c 3.4,0.5 6.8,0.5 10.2,-0.2 -0.3,3.9 -5.6,5.6 -4.9,9.6 0.9,3.9 3.1,7.4 4.7,11.1 -6.5,-0.3 -13.1,0.1 -19.5,-1.1 -0.6,-3.4 -2.1,-8.4 1.4,-10.7 3.5,-2.1 6,-5.2 8.1,-8.7 z" class="st14" style="fill:#d07b84"/><path id="path601" d="m 312.1,259 c 6.7,-0.3 13,2.2 19.6,2.9 0,2.7 0.8,5.7 -0.5,8.3 -8.1,1.5 -15.7,5.1 -24,5.3 0.2,-2.2 0.3,-4.5 0.3,-6.7 0.9,-0.6 2.8,-1.9 3.8,-2.5 0.3,-2.5 0.6,-4.9 0.8,-7.3 z" class="st15" style="fill:#fefefe"/><path id="path603" d="m 134.1,258.5 c 4.6,1.1 11.9,-1.6 14.7,2.2 -0.8,-0.1 -2.4,-0.3 -3.2,-0.4 0.5,1.6 1,3.3 1.6,4.9 -3.7,0 -7.5,-0.2 -11.2,-0.2 -0.6,-2.2 -1.3,-4.4 -1.9,-6.5 m -45.9,11.2 c 10.6,-1.7 21.2,0.8 31.8,1.2 0.4,0.5 1.2,1.4 1.7,1.9 -10.7,0 -21.5,0.8 -32.1,-0.3 -0.4,-0.7 -1.1,-2.1 -1.4,-2.8 z" class="st16" style="fill:#e1cb86"/><path id="path605" d="m 85.9,264.4 c 2,-6.6 10.6,-5.4 16.1,-5.7 5,0.7 11.2,-1.3 15,3 -0.4,0.9 -1.2,2.7 -1.6,3.6 -9.9,-0.5 -19.7,-0.6 -29.5,-0.9 m 69.2,6.4 c 17.7,0.2 35.4,0.5 53.1,1.7 -0.3,0.6 -1,1.7 -1.3,2.2 -17.3,0.6 -34.5,0.3 -51.8,0.2 0,-1.1 0,-3.1 0,-4.1 z" class="st17" style="fill:#ddc377"/><path id="path607" d="m 145.6,260.3 c 0.8,0.1 2.4,0.3 3.2,0.4 4.1,0.7 8,2.6 12.2,2.7 14.9,-4.4 30.7,-2 46,-2 0.1,1.3 0.3,4 0.4,5.3 -11.5,0.4 -23,0.5 -34.5,0.2 -6,0 -11.7,-4 -17.7,-2.2 -2.6,0.2 -5.6,3 -7.9,0.6 -0.7,-1.8 -1.2,-3.4 -1.7,-5 m -4.1,10.4 c 4.5,0 9,0.1 13.6,0 0,1 0,3.1 0,4.1 -3.6,-0.1 -7.3,-0.3 -10.9,-0.4 -0.9,-1.2 -1.8,-2.4 -2.7,-3.7 z" class="st18" style="fill:#dcc576"/><path id="path609" d="m 225.4,264.5 c -0.7,-4.1 4.5,-3.3 7,-3.9 5.8,-0.4 11.5,-0.1 17.3,-0.1 0.3,2.9 -0.9,4.3 -3.7,4.2 -6.9,0.2 -13.8,0.2 -20.6,-0.2 m 37.2,-3.4 c 10.7,-0.9 21.4,-2.4 32.3,-1.8 3,0.6 5.3,3 7.8,4.6 -7.3,3.6 -15.6,2.8 -23.5,1.7 -6,-0.8 -12.3,0.3 -18.2,-1.5 0.4,-0.8 1.2,-2.3 1.6,-3 m -38.9,8.4 c 10.7,-0.9 21.4,-0.5 31.9,1.6 9.8,-1.3 19.8,-0.1 29.6,-1.8 4.1,0.3 12.6,-1.5 11.6,4.9 -4.6,0.6 -8.9,-2.3 -13.6,-1.9 -9.2,0.6 -18.5,1.4 -27.6,-0.6 -10.4,2.2 -21.1,1.2 -31.6,1.8 -0.1,-1 -0.2,-3 -0.3,-4 z" class="st19" style="fill:#f5d776"/><path id="path611" d="m 216.8,265.2 c 0,-0.2 0.1,-0.5 0.1,-0.7 z" class="st20" style="fill:#959d64"/></g></g></g></svg>