<svg xmlns="http://www.w3.org/2000/svg" xmlns:svg="http://www.w3.org/2000/svg" id="svg189" width="36" height="46.759" version="1.1" viewBox="0 0 9.525 12.372"><defs id="defs183"><linearGradient id="_Linear1" x1="0" x2="1" y1="0" y2="0" gradientTransform="matrix(3.08228,-10.3064,8.72379,3.56577,19.8394,42.498)" gradientUnits="userSpaceOnUse"><stop style="stop-color:#ff9700;stop-opacity:1" id="stop135" offset="0"/><stop style="stop-color:#f48e00;stop-opacity:1" id="stop137" offset=".53"/><stop style="stop-color:#d06f00;stop-opacity:1" id="stop139" offset="1"/></linearGradient></defs><metadata id="metadata186"/><g id="layer1" transform="translate(-4.3089286,-101.0701)"><g style="clip-rule:evenodd;fill-rule:evenodd;stroke-linejoin:round;stroke-miterlimit:1.41420996" id="g131" transform="matrix(0.26458333,0,0,0.26458333,4.3089286,100.26434)"><path id="path125" d="m 35.995,26.563 c 0,-0.548 -0.405,-0.864 -0.902,-0.707 L 0.902,36.698 C 0.404,36.856 0,37.429 0,37.976 v 11.081 c 0,0.548 0.404,0.865 0.902,0.707 L 35.093,38.923 c 0.497,-0.158 0.902,-0.731 0.902,-1.279 z" style="fill:url(#_Linear1)"/><path id="path127" d="m 0,26.21 c 0,0.548 0.404,1.121 0.902,1.279 L 35.098,38.332 C 35.596,38.49 36,38.173 36,37.626 V 26.544 c 0,-0.547 -0.404,-1.12 -0.902,-1.278 L 0.902,14.423 C 0.404,14.265 0,14.581 0,15.129 Z" style="fill:#ff9800"/><path id="path129" d="m 35.995,3.793 c 0,-0.548 -0.405,-0.865 -0.902,-0.707 L 0.902,13.927 C 0.404,14.085 0,14.658 0,15.206 v 11.081 c 0,0.548 0.404,0.864 0.902,0.707 L 35.093,16.152 c 0.497,-0.158 0.902,-0.731 0.902,-1.278 z" style="fill:#ff9800"/></g></g></svg>